# xmcd
#
# Track frame offsets:
#	150
#	16274
#	38800
#	52728
#	65657
#	80720
#	101383
#	116684
#	128336
#	146061
#
# Disc length: 2175 seconds
#
# Revision: 0
# Processed by: cddbd v1.5.2PL0 Copyright (c) Steve Scherf et al.
# Submitted via: dBpowerAMP V4.0
#
DISCID=7d087d0a
DTITLE=Patty Loveless - Super Hits
DYEAR=2008
DGENRE=Country
TTITLE0=Blame It On Your Heart
TTITLE1=How Can I Help You Say Goodbye
TTITLE2=Here I Am
TTITLE3=She Drew A Broken Heart
TTITLE4=I Miss Who I Was (With You)
TTITLE5=To Have You Back Again
TTITLE6=The Last Thing On My Mind
TTITLE7=The Boys Are Back In Town
TTITLE8=On Your Way Home
TTITLE9=Keep Your Distance
EXTD=
EXTT0=
EXTT1=
EXTT2=
EXTT3=
EXTT4=
EXTT5=
EXTT6=
EXTT7=
EXTT8=
EXTT9=
PLAYORDER=
